<svg width="23" height="33" viewBox="0 0 23 33" fill="none" xmlns="http://www.w3.org/2000/svg">
<path d="M2.09742 33V7.72709C2.06498 7.71716 1.60157 7.36801 0 6.14362H12.0601C15.421 7.32439 15.7995 8.83798 16.0802 11.7606V15.9734C13.419 11.3264 11.4033 9.97545 8.91402 9.65426H7.16617V27.2074C7.31699 29.9732 5.37439 31.251 2.09742 33Z" fill="#6154B2"/>
<path d="M17.1017 24.9255C14.3726 26.3114 12.9322 24.6821 10.6479 23.115C9.46597 19.9924 9.53719 17.8387 10.6479 13.4573C12.5078 20.4404 13.9277 21.9347 17.1017 18.0487C19.315 15.9944 18.9684 10.5714 16.5453 0C18.0668 0.217404 18.9428 0.58625 20.5511 1.74154C21.1016 3.11455 21.4194 4.19023 21.9976 6.49119C22.5105 11.2038 22.9826 13.7192 21.9976 19.1569C21.4826 20.3834 20.5226 23.3761 17.1017 24.9255Z" fill="#B2A7C9"/>
</svg>
